<svg xmlns="http://www.w3.org/2000/svg" width="960" height="300" viewBox="0 0 480 150">
  <defs></defs>
  <g transform="translate(12.5,12.5) scale(1.04)">
    <path d="M34,15 H86 C100.3,15 112,26.7 112,41 V61 C112,75.3 100.3,87 86,87 H45 C43,94 35.5,99 25,101 C31.5,94.5 32.5,89.5 30.5,85.6 C18,82.4 8,71.6 8,59 V41 C8,26.7 19.7,15 34,15 Z" fill="#3B2A20"></path>
    <g stroke="#FFFFFF" stroke-width="4" stroke-linecap="round" fill="none" opacity="0.95"><path d="M53,46 C49,41 57,37 53,31"></path><path d="M67,46 C63,41 71,37 67,31"></path></g>
    <path d="M33,61 Q35,83 60,84 Q85,83 87,61 Z" fill="#FFFFFF"></path>
    <path d="M51,84 Q60,89.5 69,84" stroke="#FFFFFF" stroke-width="4.5" stroke-linecap="round" fill="none"></path>
    <path d="M35,61 C37,50 48,48 53.5,55 C57,47 63,47 66.5,55 C72,49 83,50 85,61 Z" fill="#FFFFFF"></path>
    <path d="M36,61 Q60,67 84,61" stroke="#3B2A20" stroke-width="3" stroke-linecap="round" fill="none" opacity="0.65"></path>
  </g>
  <path d="M233.08 74.52L233.08 74.52Q233.08 87 228.52 95.46Q223.96 103.92 216.10 108.24Q208.24 112.56 198.28 112.56L198.28 112.56Q188.44 112.56 180.52 108.24Q172.60 103.92 168.04 95.46Q163.48 87 163.48 74.52L163.48 74.52Q163.48 62.04 168.16 53.58Q172.84 45.12 180.70 40.80Q188.56 36.48 198.28 36.48L198.28 36.48Q208.12 36.48 215.98 40.80Q223.84 45.12 228.46 53.58Q233.08 62.04 233.08 74.52ZM223.12 74.52L223.12 74.52Q223.12 60.24 216.34 52.50Q209.56 44.76 198.28 44.76L198.28 44.76Q187.12 44.76 180.34 52.50Q173.56 60.24 173.56 74.52L173.56 74.52Q173.56 88.80 180.28 96.54Q187 104.28 198.28 104.28L198.28 104.28Q209.68 104.28 216.40 96.54Q223.12 88.80 223.12 74.52ZM257.08 69.12L290.08 69.12L290.08 77.04L257.08 77.04L257.08 69.12ZM276.28 77.04L276.28 77.04L280.12 71.04Q288.28 71.04 293.68 73.74Q299.08 76.44 301.78 80.88Q304.48 85.32 304.48 90.84L304.48 90.84Q304.48 101.76 296.62 107.04Q288.76 112.32 274.24 112.32L274.24 112.32Q271 112.32 267.76 112.14Q264.52 111.96 261.40 111.48Q258.28 111 255.40 110.28L255.40 110.28Q250.36 108.84 250.36 104.76L250.36 104.76L250.36 43.32Q250.36 41.40 251.38 40.32Q252.40 39.24 254.32 38.76L254.32 38.76Q258.40 37.56 263.02 37.14Q267.64 36.72 272.92 36.72L272.92 36.72Q286.48 36.72 294.04 41.58Q301.60 46.44 301.60 56.40L301.60 56.40Q301.60 61.44 299.14 65.70Q296.68 69.96 291.22 72.54Q285.76 75.12 276.64 75.12L276.64 75.12L275.56 69.12Q283.48 69.12 287.56 65.82Q291.64 62.52 291.64 56.64L291.64 56.64Q291.64 50.64 286.90 47.70Q282.16 44.76 272.92 44.76L272.92 44.76Q268.84 44.76 265.72 45.06Q262.60 45.36 259.96 45.84L259.96 45.84L259.96 102.96Q262.84 103.56 266.62 103.92Q270.40 104.28 274.24 104.28L274.24 104.28Q284.20 104.28 289.36 100.92Q294.52 97.56 294.52 90.60L294.52 90.60Q294.52 84.36 289.90 80.70Q285.28 77.04 276.28 77.04ZM387.64 74.52L387.64 74.52Q387.64 87 383.08 95.46Q378.52 103.92 370.66 108.24Q362.80 112.56 352.84 112.56L352.84 112.56Q343 112.56 335.08 108.24Q327.16 103.92 322.60 95.46Q318.04 87 318.04 74.52L318.04 74.52Q318.04 62.04 322.72 53.58Q327.40 45.12 335.26 40.80Q343.12 36.48 352.84 36.48L352.84 36.48Q362.68 36.48 370.54 40.80Q378.40 45.12 383.02 53.58Q387.64 62.04 387.64 74.52ZM377.68 74.52L377.68 74.52Q377.68 60.24 370.90 52.50Q364.12 44.76 352.84 44.76L352.84 44.76Q341.68 44.76 334.90 52.50Q328.12 60.24 328.12 74.52L328.12 74.52Q328.12 88.80 334.84 96.54Q341.56 104.28 352.84 104.28L352.84 104.28Q364.24 104.28 370.96 96.54Q377.68 88.80 377.68 74.52ZM411.64 69.12L444.64 69.12L444.64 77.04L411.64 77.04L411.64 69.12ZM430.84 77.04L430.84 77.04L434.68 71.04Q442.84 71.04 448.24 73.74Q453.64 76.44 456.34 80.88Q459.04 85.32 459.04 90.84L459.04 90.84Q459.04 101.76 451.18 107.04Q443.32 112.32 428.80 112.32L428.80 112.32Q425.56 112.32 422.32 112.14Q419.08 111.96 415.96 111.48Q412.84 111 409.96 110.28L409.96 110.28Q404.92 108.84 404.92 104.76L404.92 104.76L404.92 43.32Q404.92 41.40 405.94 40.32Q406.96 39.24 408.88 38.76L408.88 38.76Q412.96 37.56 417.58 37.14Q422.20 36.72 427.48 36.72L427.48 36.72Q441.04 36.72 448.60 41.58Q456.16 46.44 456.16 56.40L456.16 56.40Q456.16 61.44 453.70 65.70Q451.24 69.96 445.78 72.54Q440.32 75.12 431.20 75.12L431.20 75.12L430.12 69.12Q438.04 69.12 442.12 65.82Q446.20 62.52 446.20 56.64L446.20 56.64Q446.20 50.64 441.46 47.70Q436.72 44.76 427.48 44.76L427.48 44.76Q423.40 44.76 420.28 45.06Q417.16 45.36 414.52 45.84L414.52 45.84L414.52 102.96Q417.40 103.56 421.18 103.92Q424.96 104.28 428.80 104.28L428.80 104.28Q438.76 104.28 443.92 100.92Q449.08 97.56 449.08 90.60L449.08 90.60Q449.08 84.36 444.46 80.70Q439.84 77.04 430.84 77.04Z" fill="#3B2A20"></path>
</svg>
